# xmcd
#
# Track frame offsets:
#	150
#	16958
#	34999
#	54604
#	65741
#	78311
#	100982
#	121836
#	148305
#	164941
#	184980
#	211634
#	223356
#	242477
#
# Disc length: 3500 seconds
#
# Revision: 1
# Processed by: cddbd v1.5.2PL0 Copyright (c) Steve Scherf et al.
# Submitted via: audiograbber 1.83.01
#
DISCID=d70daa0e
DTITLE=The Pine Box Boys - Child of Calamity
DYEAR=2008
DGENRE=Folk-rock
TTITLE0=The Child of Calamity
TTITLE1=Pardon Me Ginger
TTITLE2=Pukin' Blood, Spittin' Teeth, Bein' High
TTITLE3=An Unkindness
TTITLE4=Hair of Gold
TTITLE5=O, Mercy, O, Meredith
TTITLE6=The Undertaker's Prayer
TTITLE7=Don't Ask Me to Stop
TTITLE8=The Maiden's Eye
TTITLE9=Dark of the Holler
TTITLE10=The Gravedigger
TTITLE11=A Ship Lost at Sea
TTITLE12=To the Blue
TTITLE13=The Pallbearers
EXTD=
EXTT0=
EXTT1=
EXTT2=
EXTT3=
EXTT4=
EXTT5=
EXTT6=
EXTT7=
EXTT8=
EXTT9=
EXTT10=
EXTT11=
EXTT12=
EXTT13=
PLAYORDER=
